<svg id="logo" xmlns="http://www.w3.org/2000/svg" viewBox="0 0 1024 767.46" fill="#fff">
  <path d="M429.77,797.94c0,56,45,101.35,100.41,101.35V667.08L429.77,565.73Z" transform="translate(0 -131.83)"/>
  <path d="M70.63,203.23C-23.54,298.29-23.54,453,70.63,548a243.72,243.72,0,0,0,24.69,21.78,241.12,241.12,0,0,0,146.1,49.63c64.52,0,125.17-25.36,170.79-71.41l-71-71.66a140.2,140.2,0,0,1-185.08,12.79,144.81,144.81,0,0,1-14.5-12.79c-55-55.54-55-145.91,0-201.45a140.38,140.38,0,0,1,199.58,0L527.66,463.08V375.62h.12a261.09,261.09,0,0,1,5-50.7L412.21,203.23A240.23,240.23,0,0,0,70.63,203.23Z" transform="translate(0 -131.83)"/>
  <path d="M953.37,203.23c-45.62-46-106.28-71.4-170.79-71.4s-125.17,25.36-170.79,71.4a243.35,243.35,0,0,0-70.74,172.39V899.29c55.45,0,100.4-45.38,100.4-101.35V375.62a142.19,142.19,0,0,1,41.34-100.73,140.2,140.2,0,0,1,199.58,0,143.4,143.4,0,0,1,0,201.45,140.2,140.2,0,0,1-199.58,0,142.64,142.64,0,0,1-27.95-40V582.55a238.29,238.29,0,0,0,127.74,36.86c64.51,0,125.17-25.36,170.79-71.41C1047.54,453,1047.54,298.29,953.37,203.23Z" transform="translate(0 -131.83)"/>
  <path d="M164.24,298.27a110.59,110.59,0,0,0,0,155.36,108.13,108.13,0,0,0,153.92,0A109.64,109.64,0,0,0,340,422.1l190.18,192V512.28l-212-214A108.13,108.13,0,0,0,164.24,298.27Z" transform="translate(0 -131.83)"/>
</svg>