<svg width="792" height="785" viewBox="0 0 792 785" fill="none" xmlns="http://www.w3.org/2000/svg">
<g filter="url(#filter0_f_45_144)">
<path fill-rule="evenodd" clip-rule="evenodd" d="M342.639 352.836C366.614 355.61 386.886 369.259 406.072 383.898C424.807 398.193 443.344 413.714 451.431 435.846C459.698 458.467 462.444 485.235 450.814 506.326C439.746 526.398 412.073 527.739 393.416 541.059C375.002 554.206 364.99 580.031 342.639 583.56C319.541 587.207 298.791 571.131 278.698 559.172C256.488 545.953 228.572 535.411 220.498 510.863C212.42 486.302 230.565 461.965 238.649 437.406C246.693 412.966 247.598 384.112 267.562 367.876C287.859 351.37 316.649 349.83 342.639 352.836Z" fill="#CBA6F7"/>
<path fill-rule="evenodd" clip-rule="evenodd" d="M454.578 202.661C477.545 204.54 486.805 234.171 507.251 244.807C533.853 258.645 580.214 244.973 590.263 273.243C600.196 301.187 556.917 319.874 543.3 346.218C532.941 366.259 534.511 390.503 520.511 408.191C502.944 430.385 482.574 454.238 454.578 458.31C425.366 462.56 392.188 452.154 373.076 429.638C354.796 408.103 367.617 375.282 360.822 347.855C354.776 323.45 328.31 302.739 335.685 278.703C343.056 254.681 374.095 249.173 395.252 235.642C414.791 223.144 431.466 200.769 454.578 202.661Z" fill="#FAB387"/>
<path fill-rule="evenodd" clip-rule="evenodd" d="M305.058 201.558C328.659 196.746 354.612 203.302 373.559 218.191C392.2 232.839 400.422 256.804 404.991 280.085C409.145 301.257 406.928 323.197 398.02 342.843C389.78 361.018 371.319 370.482 357.488 384.855C339.554 403.493 330.862 440.944 305.058 439.453C278.713 437.931 274.17 398.975 256.847 379.042C244.767 365.14 227.97 356.713 219.115 340.559C208.638 321.448 194.707 299.608 202.054 279.086C209.396 258.58 236.823 255.613 254.213 242.524C272.038 229.107 283.207 206.013 305.058 201.558Z" fill="#89B4FA"/>
<path fill-rule="evenodd" clip-rule="evenodd" d="M453.497 364.06C477.759 369.675 491.976 391.007 511.285 406.705C534.768 425.797 573.807 434.296 576.876 464.365C579.973 494.707 547.023 514.604 524.392 535.104C503.366 554.149 481.679 579.605 453.497 576.119C426.26 572.75 414.908 541.256 398.241 519.499C384.975 502.181 373.247 485.497 367.889 464.365C359.987 433.206 339.922 396.351 360.807 371.88C381.706 347.393 422.097 356.793 453.497 364.06Z" fill="#F5C2E7"/>
</g>
<path d="M303.41 227.648C304.019 227.648 304.512 227.154 304.512 226.546C304.512 225.938 304.019 225.444 303.41 225.444C302.802 225.444 302.309 225.938 302.309 226.546C302.309 227.154 302.802 227.648 303.41 227.648Z" fill="white" style="mix-blend-mode:soft-light"/>
<path d="M386.914 160.445C387.626 160.445 388.203 159.868 388.203 159.156C388.203 158.444 387.626 157.867 386.914 157.867C386.202 157.867 385.625 158.444 385.625 159.156C385.625 159.868 386.202 160.445 386.914 160.445Z" fill="white" style="mix-blend-mode:soft-light"/>
<path d="M516.281 185.377C516.76 185.377 517.148 184.989 517.148 184.51C517.148 184.031 516.76 183.643 516.281 183.643C515.802 183.643 515.413 184.031 515.413 184.51C515.413 184.989 515.802 185.377 516.281 185.377Z" fill="white" style="mix-blend-mode:soft-light"/>
<path d="M189.401 339.588C189.825 339.588 190.169 339.244 190.169 338.82C190.169 338.396 189.825 338.053 189.401 338.053C188.978 338.053 188.634 338.396 188.634 338.82C188.634 339.244 188.978 339.588 189.401 339.588Z" fill="white" style="mix-blend-mode:soft-light"/>
<path d="M148.238 206.442C148.882 206.442 149.404 205.92 149.404 205.276C149.404 204.632 148.882 204.11 148.238 204.11C147.594 204.11 147.072 204.632 147.072 205.276C147.072 205.92 147.594 206.442 148.238 206.442Z" fill="white" style="mix-blend-mode:soft-light"/>
<path d="M274.036 122.434C274.441 122.434 274.769 122.106 274.769 121.702C274.769 121.297 274.441 120.969 274.036 120.969C273.632 120.969 273.304 121.297 273.304 121.702C273.304 122.106 273.632 122.434 274.036 122.434Z" fill="white" style="mix-blend-mode:soft-light"/>
<path d="M529.002 276.95C529.694 276.95 530.256 276.388 530.256 275.696C530.256 275.003 529.694 274.442 529.002 274.442C528.309 274.442 527.748 275.003 527.748 275.696C527.748 276.388 528.309 276.95 529.002 276.95Z" fill="white" style="mix-blend-mode:soft-light"/>
<path d="M390.969 635.951C391.61 635.951 392.129 635.431 392.129 634.791C392.129 634.15 391.61 633.63 390.969 633.63C390.328 633.63 389.809 634.15 389.809 634.791C389.809 635.431 390.328 635.951 390.969 635.951Z" fill="white" style="mix-blend-mode:soft-light"/>
<path d="M143.439 487.611C144.1 487.611 144.635 487.076 144.635 486.416C144.635 485.756 144.1 485.22 143.439 485.22C142.779 485.22 142.244 485.756 142.244 486.416C142.244 487.076 142.779 487.611 143.439 487.611Z" fill="white" style="mix-blend-mode:soft-light"/>
<path d="M195.032 519.575C195.534 519.575 195.941 519.168 195.941 518.667C195.941 518.165 195.534 517.758 195.032 517.758C194.531 517.758 194.124 518.165 194.124 518.667C194.124 519.168 194.531 519.575 195.032 519.575Z" fill="white" style="mix-blend-mode:soft-light"/>
<path d="M602.011 201.526C602.782 201.526 603.406 200.901 603.406 200.131C603.406 199.361 602.782 198.737 602.011 198.737C601.241 198.737 600.617 199.361 600.617 200.131C600.617 200.901 601.241 201.526 602.011 201.526Z" fill="white" style="mix-blend-mode:soft-light"/>
<path d="M545.309 455.806C545.962 455.806 546.492 455.276 546.492 454.622C546.492 453.968 545.962 453.438 545.309 453.438C544.655 453.438 544.125 453.968 544.125 454.622C544.125 455.276 544.655 455.806 545.309 455.806Z" fill="white" style="mix-blend-mode:soft-light"/>
<path d="M589.724 482.537C590.86 482.537 591.781 481.616 591.781 480.48C591.781 479.344 590.86 478.423 589.724 478.423C588.588 478.423 587.667 479.344 587.667 480.48C587.667 481.616 588.588 482.537 589.724 482.537Z" fill="white" style="mix-blend-mode:soft-light"/>
<path d="M216.701 604.321C217.669 604.321 218.453 603.537 218.453 602.569C218.453 601.601 217.669 600.817 216.701 600.817C215.733 600.817 214.949 601.601 214.949 602.569C214.949 603.537 215.733 604.321 216.701 604.321Z" fill="white" style="mix-blend-mode:soft-light"/>
<path d="M388.11 545.533C389.022 545.533 389.762 544.793 389.762 543.88C389.762 542.968 389.022 542.228 388.11 542.228C387.197 542.228 386.457 542.968 386.457 543.88C386.457 544.793 387.197 545.533 388.11 545.533Z" fill="white" style="mix-blend-mode:soft-light"/>
<path d="M536.824 650.16C537.617 650.16 538.26 649.517 538.26 648.725C538.26 647.932 537.617 647.289 536.824 647.289C536.031 647.289 535.389 647.932 535.389 648.725C535.389 649.517 536.031 650.16 536.824 650.16Z" fill="white" style="mix-blend-mode:soft-light"/>
<path d="M166.725 364.596C167.861 364.596 168.782 363.675 168.782 362.54C168.782 361.404 167.861 360.483 166.725 360.483C165.589 360.483 164.668 361.404 164.668 362.54C164.668 363.675 165.589 364.596 166.725 364.596Z" fill="white" style="mix-blend-mode:soft-light"/>
<g opacity="0.1">
<path d="M651.712 605.522H557.831C557.085 605.522 556.346 605.375 555.657 605.09C554.967 604.804 554.341 604.385 553.814 603.857C553.287 603.329 552.868 602.703 552.583 602.013C552.298 601.324 552.152 600.585 552.153 599.839C552.153 599.093 552.3 598.355 552.585 597.666C552.87 596.977 553.289 596.351 553.816 595.824C554.343 595.296 554.969 594.878 555.658 594.593C556.347 594.308 557.085 594.161 557.831 594.161H605.1C612.535 594.161 618.869 588.377 619.162 580.947C619.229 579.106 618.924 577.269 618.266 575.548C617.607 573.826 616.608 572.255 615.329 570.929C614.05 569.602 612.516 568.546 610.82 567.825C609.124 567.104 607.3 566.733 605.457 566.732H596.902C595.396 566.732 593.952 566.134 592.887 565.069C591.822 564.004 591.224 562.56 591.224 561.054C591.223 560.308 591.37 559.569 591.655 558.88C591.94 558.19 592.358 557.564 592.885 557.036C593.412 556.508 594.039 556.089 594.728 555.803C595.417 555.518 596.156 555.371 596.902 555.371H620.926C623.938 555.371 626.826 554.174 628.956 552.045C631.085 549.915 632.282 547.027 632.282 544.015C632.28 541.003 631.083 538.114 628.952 535.985C626.822 533.855 623.933 532.659 620.92 532.659H508.728C505.715 532.659 502.825 533.856 500.694 535.987C498.563 538.118 497.366 541.007 497.366 544.021C497.368 547.033 498.566 549.921 500.696 552.051C502.827 554.18 505.716 555.376 508.728 555.376H509.988C510.734 555.376 511.473 555.524 512.162 555.809C512.851 556.095 513.477 556.514 514.005 557.042C514.532 557.569 514.95 558.196 515.235 558.886C515.52 559.575 515.666 560.314 515.666 561.06C515.666 562.566 515.067 564.01 514.003 565.075C512.938 566.14 511.494 566.738 509.988 566.738H452.688C445.252 566.738 438.918 572.521 438.654 579.951C438.584 581.795 438.886 583.634 439.544 585.357C440.201 587.081 441.199 588.655 442.479 589.983C443.758 591.312 445.293 592.369 446.991 593.091C448.689 593.813 450.515 594.185 452.359 594.184H469.745C471.25 594.184 472.695 594.782 473.759 595.847C474.824 596.912 475.422 598.356 475.422 599.862C475.423 600.608 475.277 601.347 474.992 602.037C474.707 602.726 474.289 603.353 473.762 603.881C473.234 604.409 472.608 604.827 471.919 605.113C471.23 605.399 470.491 605.546 469.745 605.546H463.1C461.614 605.545 460.142 605.837 458.768 606.405C457.395 606.974 456.147 607.807 455.095 608.858C454.044 609.908 453.21 611.156 452.641 612.529C452.072 613.902 451.779 615.374 451.779 616.86C451.782 619.861 452.976 622.737 455.099 624.858C457.222 626.978 460.099 628.169 463.1 628.169H651.712C653.199 628.169 654.671 627.877 656.044 627.308C657.418 626.739 658.666 625.905 659.717 624.854C660.768 623.802 661.602 622.554 662.171 621.181C662.74 619.807 663.033 618.335 663.033 616.849C663.034 615.361 662.742 613.888 662.174 612.514C661.606 611.139 660.772 609.89 659.721 608.838C658.669 607.786 657.421 606.952 656.047 606.383C654.672 605.814 653.199 605.521 651.712 605.522Z" fill="#969696" style="mix-blend-mode:color-dodge"/>
</g>
<g opacity="0.1">
<path d="M633.899 272.678H589.279C588.018 272.678 586.81 272.177 585.919 271.286C585.027 270.395 584.527 269.186 584.527 267.926C584.527 266.666 585.027 265.457 585.919 264.566C586.81 263.675 588.018 263.174 589.279 263.174H597.74C600.261 263.174 602.678 262.173 604.46 260.39C606.243 258.608 607.244 256.19 607.244 253.67C607.244 251.149 606.243 248.732 604.46 246.949C602.678 245.167 600.261 244.166 597.74 244.166H510.117C507.596 244.166 505.179 245.167 503.396 246.949C501.614 248.732 500.612 251.149 500.612 253.67C500.612 254.918 500.858 256.154 501.336 257.307C501.814 258.46 502.514 259.508 503.396 260.39C504.279 261.273 505.326 261.973 506.479 262.45C507.633 262.928 508.868 263.174 510.117 263.174H525.07C526.33 263.175 527.538 263.677 528.429 264.567C529.319 265.458 529.821 266.666 529.822 267.926C529.821 269.186 529.319 270.394 528.429 271.284C527.538 272.175 526.33 272.676 525.07 272.678H518.918C517.669 272.678 516.434 272.924 515.281 273.401C514.127 273.879 513.08 274.579 512.197 275.462C511.315 276.344 510.615 277.392 510.137 278.545C509.659 279.698 509.413 280.934 509.413 282.182C509.413 284.703 510.415 287.12 512.197 288.903C513.98 290.685 516.397 291.686 518.918 291.686H633.899C636.42 291.686 638.837 290.685 640.619 288.903C642.402 287.12 643.403 284.703 643.403 282.182C643.403 280.934 643.157 279.698 642.68 278.545C642.202 277.392 641.502 276.344 640.619 275.462C639.737 274.579 638.689 273.879 637.536 273.401C636.383 272.924 635.147 272.678 633.899 272.678Z" fill="#969696" style="mix-blend-mode:color-dodge"/>
</g>
<g opacity="0.1">
<path d="M155.182 198.309H249.063C249.809 198.308 250.548 198.454 251.238 198.739C251.927 199.024 252.554 199.443 253.082 199.97C253.61 200.497 254.028 201.123 254.314 201.813C254.6 202.502 254.747 203.241 254.747 203.987C254.747 204.733 254.6 205.472 254.314 206.161C254.028 206.85 253.61 207.476 253.082 208.004C252.554 208.531 251.927 208.949 251.238 209.234C250.548 209.519 249.809 209.665 249.063 209.665H201.794C194.359 209.665 188.025 215.448 187.761 222.884C187.694 224.726 187.999 226.562 188.657 228.283C189.316 230.005 190.315 231.576 191.594 232.903C192.873 234.229 194.407 235.285 196.103 236.006C197.799 236.727 199.623 237.099 201.466 237.099H209.992C211.498 237.099 212.942 237.697 214.007 238.762C215.072 239.827 215.67 241.271 215.67 242.777C215.67 244.283 215.072 245.727 214.007 246.792C212.942 247.857 211.498 248.455 209.992 248.455H185.968C182.956 248.456 180.067 249.654 177.938 251.785C175.808 253.915 174.612 256.804 174.612 259.816C174.612 262.828 175.809 265.716 177.938 267.846C180.068 269.976 182.956 271.172 185.968 271.172H298.201C301.213 271.172 304.101 269.976 306.231 267.846C308.36 265.716 309.557 262.828 309.557 259.816C309.552 256.807 308.354 253.923 306.225 251.796C304.096 249.669 301.21 248.474 298.201 248.472H296.935C295.43 248.472 293.985 247.874 292.921 246.809C291.856 245.744 291.258 244.3 291.258 242.794C291.258 241.289 291.856 239.844 292.921 238.78C293.985 237.715 295.43 237.117 296.935 237.117H354.236C361.671 237.117 368.006 231.333 368.269 223.903C368.337 222.061 368.033 220.224 367.374 218.502C366.716 216.78 365.718 215.208 364.438 213.881C363.159 212.553 361.625 211.497 359.929 210.776C358.232 210.055 356.407 209.683 354.564 209.682H337.149C335.643 209.682 334.199 209.084 333.134 208.019C332.07 206.954 331.471 205.51 331.471 204.004C331.471 202.499 332.07 201.054 333.134 199.99C334.199 198.925 335.643 198.327 337.149 198.327H343.794C346.796 198.327 349.676 197.134 351.799 195.011C353.922 192.888 355.115 190.008 355.115 187.006C355.115 184.004 353.922 181.124 351.799 179.001C349.676 176.878 346.796 175.685 343.794 175.685H155.182C152.183 175.685 149.306 176.876 147.183 178.995C145.061 181.114 143.866 183.989 143.861 186.988C143.861 189.991 145.054 192.87 147.177 194.993C149.3 197.116 152.18 198.309 155.182 198.309Z" fill="#969696" style="mix-blend-mode:color-dodge"/>
</g>
<g opacity="0.1">
<path d="M345.511 560.246H284.22C281.756 560.246 279.392 559.267 277.649 557.524C275.906 555.781 274.927 553.417 274.927 550.952C274.927 548.488 275.906 546.124 277.649 544.381C279.392 542.638 281.756 541.659 284.22 541.659H288.621C290.46 541.66 292.282 541.298 293.982 540.595C295.682 539.892 297.226 538.86 298.527 537.56C299.828 536.259 300.86 534.715 301.564 533.016C302.269 531.316 302.631 529.495 302.631 527.655C302.631 523.939 301.155 520.376 298.527 517.748C295.9 515.121 292.337 513.645 288.621 513.645H122.89C119.175 513.646 115.612 515.123 112.985 517.75C110.358 520.377 108.882 523.94 108.88 527.655C108.882 531.37 110.358 534.932 112.986 537.558C115.613 540.184 119.175 541.659 122.89 541.659H166.098C167.319 541.659 168.527 541.9 169.655 542.367C170.782 542.834 171.807 543.518 172.67 544.381C173.532 545.244 174.217 546.269 174.684 547.396C175.151 548.524 175.391 549.732 175.391 550.952C175.391 552.173 175.151 553.381 174.684 554.509C174.217 555.636 173.532 556.661 172.67 557.524C171.807 558.387 170.782 559.071 169.655 559.538C168.527 560.005 167.319 560.246 166.098 560.246H153.067C145.93 560.246 139.859 565.789 139.59 572.92C139.523 574.689 139.814 576.453 140.445 578.107C141.076 579.761 142.035 581.271 143.264 582.545C144.493 583.82 145.967 584.833 147.597 585.524C149.227 586.215 150.98 586.57 152.75 586.567H345.827C347.595 586.567 349.344 586.211 350.971 585.52C352.598 584.829 354.068 583.817 355.295 582.545C356.522 581.273 357.48 579.766 358.111 578.116C358.743 576.465 359.035 574.704 358.97 572.937C358.718 565.789 352.642 560.246 345.511 560.246Z" fill="#969696" style="mix-blend-mode:color-dodge"/>
</g>
<path d="M387.266 631.527C517.594 631.527 623.246 525.875 623.246 395.546C623.246 265.218 517.594 159.566 387.266 159.566C256.937 159.566 151.285 265.218 151.285 395.546C151.285 525.875 256.937 631.527 387.266 631.527Z" fill="url(#paint0_radial_45_144)" style="mix-blend-mode:soft-light"/>
<path d="M411.138 415.017C461.389 433.006 502.376 434.582 533.244 430.188C535.923 418.835 537.274 407.21 537.27 395.546C537.27 312.704 470.108 245.543 387.266 245.543C304.424 245.543 237.262 312.704 237.262 395.546C237.262 398.775 237.373 401.992 237.579 405.15C269.226 395.458 329.919 385.943 411.138 415.017Z" fill="#FEFEFE" style="mix-blend-mode:soft-light"/>
<path d="M387.266 545.55C458.166 545.55 517.605 496.33 533.244 430.188C502.376 434.582 461.389 433.006 411.138 415.018C329.919 385.943 269.226 395.458 237.579 405.15C242.536 483.515 307.647 545.55 387.266 545.55Z" fill="#EDEDED" style="mix-blend-mode:soft-light"/>
<path d="M327.071 375.061C345.252 375.061 359.99 360.323 359.99 342.143C359.99 323.962 345.252 309.224 327.071 309.224C308.89 309.224 294.152 323.962 294.152 342.143C294.152 360.323 308.89 375.061 327.071 375.061Z" fill="#F4F4F4" style="mix-blend-mode:multiply"/>
<path d="M424.21 345.852C439.142 345.852 451.246 333.747 451.246 318.816C451.246 303.884 439.142 291.78 424.21 291.78C409.279 291.78 397.174 303.884 397.174 318.816C397.174 333.747 409.279 345.852 424.21 345.852Z" fill="#F4F4F4" style="mix-blend-mode:multiply"/>
<path d="M464.412 415C476.603 415 486.485 405.118 486.485 392.927C486.485 380.737 476.603 370.854 464.412 370.854C452.222 370.854 442.339 380.737 442.339 392.927C442.339 405.118 452.222 415 464.412 415Z" fill="#F4F4F4" style="mix-blend-mode:multiply"/>
<path d="M599.773 490.254H551.333C549.888 490.252 548.503 489.678 547.481 488.656C546.459 487.634 545.885 486.249 545.883 484.804C545.882 484.088 546.021 483.377 546.294 482.715C546.568 482.052 546.969 481.449 547.475 480.941C547.981 480.434 548.582 480.031 549.244 479.756C549.906 479.48 550.616 479.338 551.333 479.337H560.591C564.218 479.337 567.696 477.897 570.261 475.332C572.826 472.767 574.267 469.288 574.267 465.661C574.267 462.034 572.826 458.556 570.261 455.991C567.696 453.426 564.218 451.985 560.591 451.985H539.186C537.312 451.985 535.514 451.241 534.189 449.915C532.864 448.59 532.119 446.793 532.119 444.919C532.118 443.99 532.301 443.071 532.655 442.213C533.01 441.355 533.531 440.575 534.187 439.918C534.843 439.261 535.622 438.74 536.48 438.385C537.338 438.029 538.257 437.846 539.186 437.846H563.843C565.639 437.846 567.417 437.492 569.076 436.805C570.735 436.118 572.243 435.111 573.513 433.841C574.783 432.571 575.79 431.063 576.478 429.404C577.165 427.744 577.519 425.966 577.519 424.17C577.519 420.543 576.078 417.064 573.513 414.5C570.948 411.935 567.47 410.494 563.843 410.494H452.348C448.72 410.494 445.242 411.935 442.677 414.5C440.112 417.064 438.671 420.543 438.671 424.17C438.671 425.966 439.025 427.744 439.713 429.404C440.4 431.063 441.407 432.571 442.677 433.841C443.947 435.111 445.455 436.118 447.114 436.805C448.773 437.492 450.552 437.846 452.348 437.846H455.623C456.552 437.846 457.472 438.029 458.33 438.385C459.188 438.74 459.967 439.261 460.624 439.918C461.281 440.574 461.802 441.354 462.157 442.212C462.513 443.07 462.695 443.99 462.695 444.919C462.694 446.793 461.948 448.591 460.622 449.916C459.296 451.241 457.498 451.985 455.623 451.985H410.85C407.223 451.985 403.745 453.426 401.18 455.991C398.615 458.556 397.174 462.034 397.174 465.661C397.174 469.288 398.615 472.767 401.18 475.332C403.745 477.897 407.223 479.337 410.85 479.337H471.016C472.461 479.337 473.847 479.912 474.869 480.934C475.891 481.955 476.465 483.342 476.465 484.787C476.465 486.232 475.891 487.618 474.869 488.64C473.847 489.662 472.461 490.236 471.016 490.236H443.4C441.601 490.236 439.82 490.591 438.158 491.281C436.497 491.97 434.988 492.981 433.717 494.254C432.447 495.528 431.44 497.04 430.755 498.703C430.07 500.366 429.719 502.149 429.724 503.947C429.724 505.743 430.078 507.522 430.765 509.181C431.452 510.84 432.46 512.348 433.73 513.618C435 514.888 436.507 515.895 438.166 516.583C439.826 517.27 441.604 517.624 443.4 517.624H599.773C603.399 517.622 606.876 516.18 609.44 513.616C612.003 511.051 613.443 507.574 613.443 503.947C613.446 502.151 613.094 500.371 612.408 498.71C611.722 497.049 610.716 495.539 609.446 494.268C608.177 492.996 606.669 491.987 605.009 491.298C603.349 490.609 601.57 490.255 599.773 490.254Z" fill="#B9B9B9" fill-opacity="0.9" style="mix-blend-mode:hard-light"/>
<path d="M361.613 291.78H252.731C249.494 291.78 246.39 293.066 244.101 295.355C241.812 297.644 240.526 300.748 240.526 303.985C240.526 305.588 240.842 307.175 241.455 308.655C242.068 310.136 242.968 311.481 244.101 312.614C245.235 313.747 246.58 314.645 248.061 315.258C249.542 315.871 251.129 316.186 252.731 316.185H256.376C257.177 316.187 257.97 316.347 258.709 316.656C259.448 316.965 260.119 317.416 260.684 317.984C261.249 318.552 261.696 319.226 262 319.967C262.305 320.708 262.46 321.501 262.458 322.302C262.458 323.92 261.815 325.472 260.671 326.615C259.528 327.759 257.976 328.402 256.358 328.402H190.603C187.367 328.404 184.264 329.69 181.976 331.979C179.688 334.268 178.403 337.371 178.403 340.607C178.413 343.837 179.702 346.931 181.989 349.211C184.276 351.491 187.373 352.772 190.603 352.772H325.958C329.194 352.772 332.297 351.487 334.586 349.199C336.875 346.911 338.162 343.808 338.163 340.572C338.162 337.336 336.875 334.232 334.586 331.943C332.298 329.655 329.194 328.368 325.958 328.367H319.723C318.111 328.367 316.565 327.729 315.422 326.593C314.279 325.456 313.633 323.914 313.623 322.302C313.623 320.685 314.266 319.133 315.41 317.989C316.554 316.845 318.105 316.203 319.723 316.203H361.613C364.847 316.196 367.947 314.906 370.23 312.615C372.514 310.324 373.794 307.22 373.789 303.985C373.789 300.753 372.507 297.653 370.224 295.365C367.942 293.077 364.845 291.788 361.613 291.78Z" fill="#B9B9B9" fill-opacity="0.9" style="mix-blend-mode:hard-light"/>
<path d="M587.269 345.969H529.769C528.386 345.969 527.06 345.419 526.082 344.441C525.104 343.463 524.554 342.137 524.554 340.754C524.554 340.069 524.688 339.39 524.95 338.757C525.212 338.124 525.596 337.549 526.08 337.065C526.565 336.58 527.14 336.196 527.773 335.934C528.406 335.673 529.084 335.538 529.769 335.539H560.508C562.893 335.562 565.196 334.672 566.945 333.05C568.694 331.429 569.756 329.2 569.913 326.82C569.973 325.582 569.78 324.344 569.347 323.183C568.914 322.021 568.25 320.96 567.395 320.062C566.54 319.165 565.511 318.45 564.372 317.962C563.233 317.474 562.006 317.222 560.766 317.222H448.058C443.125 317.222 438.882 321.013 438.683 325.935C438.623 327.174 438.815 328.412 439.247 329.574C439.68 330.736 440.344 331.799 441.199 332.697C442.054 333.595 443.083 334.31 444.223 334.798C445.363 335.287 446.59 335.539 447.83 335.539H478.797C479.483 335.538 480.162 335.672 480.795 335.934C481.428 336.196 482.004 336.58 482.489 337.064C482.974 337.549 483.358 338.124 483.621 338.757C483.883 339.39 484.018 340.069 484.018 340.754C484.017 342.138 483.466 343.464 482.487 344.442C481.508 345.42 480.181 345.969 478.797 345.969H464.336C461.539 345.969 458.856 347.08 456.878 349.058C454.9 351.036 453.789 353.719 453.789 356.516C453.789 359.313 454.9 361.996 456.878 363.974C458.856 365.952 461.539 367.063 464.336 367.063H587.269C590.066 367.063 592.749 365.952 594.727 363.974C596.705 361.996 597.816 359.313 597.816 356.516C597.816 353.719 596.705 351.036 594.727 349.058C592.749 347.08 590.066 345.969 587.269 345.969Z" fill="#B9B9B9" fill-opacity="0.9" style="mix-blend-mode:hard-light"/>
<path d="M348.318 470.548H255.362C252.534 470.548 249.821 471.672 247.821 473.672C245.821 475.672 244.698 478.384 244.698 481.212C244.698 484.041 245.821 486.753 247.821 488.753C249.821 490.753 252.534 491.877 255.362 491.877H258.837C259.75 491.876 260.654 492.055 261.498 492.404C262.342 492.753 263.109 493.265 263.755 493.91C264.401 494.556 264.913 495.322 265.263 496.165C265.612 497.009 265.792 497.913 265.792 498.826C265.793 499.74 265.614 500.645 265.264 501.489C264.915 502.333 264.403 503.1 263.757 503.746C263.111 504.392 262.344 504.904 261.499 505.254C260.655 505.603 259.751 505.782 258.837 505.781H205.293C203.71 505.781 202.142 506.093 200.68 506.699C199.218 507.305 197.889 508.192 196.77 509.312C195.651 510.431 194.763 511.76 194.157 513.222C193.551 514.684 193.24 516.252 193.24 517.835C193.24 521.031 194.509 524.097 196.77 526.357C199.03 528.618 202.096 529.888 205.293 529.888H324.716C327.912 529.888 330.978 528.618 333.238 526.357C335.499 524.097 336.769 521.031 336.769 517.835C336.769 516.252 336.457 514.684 335.851 513.222C335.245 511.76 334.358 510.431 333.238 509.312C332.119 508.192 330.79 507.305 329.328 506.699C327.866 506.093 326.298 505.781 324.716 505.781C323.043 505.781 321.44 505.117 320.257 503.935C319.075 502.752 318.411 501.149 318.411 499.477V498.826C318.412 496.983 319.146 495.215 320.45 493.912C321.754 492.609 323.522 491.877 325.366 491.877H348.318C351.146 491.877 353.859 490.753 355.858 488.753C357.858 486.753 358.982 484.041 358.982 481.212C358.982 478.384 357.858 475.672 355.858 473.672C353.859 471.672 351.146 470.548 348.318 470.548Z" fill="#B9B9B9" fill-opacity="0.9" style="mix-blend-mode:hard-light"/>
<path d="M504.392 260.068H405.659C399.125 260.068 393.828 265.365 393.828 271.899V271.905C393.828 278.438 399.125 283.735 405.659 283.735H504.392C510.926 283.735 516.222 278.438 516.222 271.905V271.899C516.222 265.365 510.926 260.068 504.392 260.068Z" fill="#E2E2E2" fill-opacity="0.9" style="mix-blend-mode:hard-light"/>
<path d="M439.099 529.888H359.914C353.208 529.888 347.773 535.323 347.773 542.028V542.034C347.773 548.74 353.208 554.175 359.914 554.175H439.099C445.804 554.175 451.24 548.74 451.24 542.034V542.028C451.24 535.323 445.804 529.888 439.099 529.888Z" fill="#E2E2E2" fill-opacity="0.9" style="mix-blend-mode:hard-light"/>
<path d="M359.029 253.043H289.148C284.44 253.043 280.623 256.86 280.623 261.568V261.574C280.623 266.283 284.44 270.1 289.148 270.1H359.029C363.737 270.1 367.554 266.283 367.554 261.574V261.568C367.554 256.86 363.737 253.043 359.029 253.043Z" fill="#E2E2E2" fill-opacity="0.9" style="mix-blend-mode:hard-light"/>
<path d="M393.981 396.853H306.61C305.907 396.854 305.212 396.716 304.563 396.448C303.914 396.18 303.324 395.786 302.827 395.29C302.33 394.794 301.936 394.204 301.667 393.555C301.398 392.907 301.26 392.211 301.26 391.509C301.26 390.09 301.823 388.73 302.827 387.726C303.83 386.723 305.191 386.159 306.61 386.159H309.293C311.957 386.159 314.513 385.101 316.397 383.218C318.281 381.335 319.341 378.78 319.342 376.116C319.342 373.451 318.284 370.895 316.399 369.01C314.514 367.126 311.958 366.067 309.293 366.067H220.129C218.81 366.067 217.503 366.327 216.284 366.832C215.065 367.337 213.958 368.077 213.025 369.011C212.093 369.944 211.353 371.052 210.849 372.271C210.344 373.49 210.085 374.797 210.086 376.116C210.084 377.436 210.343 378.743 210.847 379.963C211.351 381.183 212.09 382.291 213.023 383.225C213.956 384.159 215.064 384.9 216.283 385.405C217.502 385.911 218.809 386.171 220.129 386.171H239.02C239.722 386.171 240.418 386.309 241.066 386.578C241.715 386.847 242.304 387.241 242.801 387.738C243.297 388.235 243.691 388.825 243.959 389.474C244.227 390.123 244.365 390.819 244.364 391.521C244.364 392.223 244.226 392.917 243.957 393.566C243.689 394.214 243.295 394.803 242.799 395.3C242.302 395.796 241.713 396.189 241.065 396.458C240.417 396.726 239.722 396.865 239.02 396.865H231.948C229.283 396.866 226.729 397.926 224.846 399.81C222.962 401.694 221.904 404.25 221.904 406.914V412.135C221.904 414.798 222.962 417.353 224.846 419.236C226.729 421.12 229.284 422.178 231.948 422.178H301.717C302.247 422.177 302.773 422.281 303.263 422.484C303.753 422.686 304.198 422.984 304.573 423.359C304.948 423.734 305.246 424.179 305.448 424.669C305.651 425.159 305.755 425.685 305.754 426.215C305.755 426.745 305.651 427.271 305.448 427.761C305.246 428.251 304.948 428.696 304.573 429.071C304.198 429.447 303.753 429.744 303.263 429.946C302.773 430.149 302.247 430.253 301.717 430.252H281.361C278.698 430.254 276.144 431.312 274.261 433.196C272.378 435.079 271.319 437.632 271.318 440.295C271.318 442.96 272.376 445.515 274.259 447.399C276.142 449.284 278.697 450.343 281.361 450.345H379.59C382.253 450.338 384.804 449.275 386.683 447.388C388.562 445.502 389.614 442.946 389.61 440.284C389.61 437.62 388.552 435.066 386.668 433.182C384.785 431.299 382.23 430.241 379.566 430.241H366.676C366.145 430.241 365.62 430.137 365.13 429.935C364.639 429.732 364.194 429.435 363.819 429.06C363.444 428.685 363.147 428.239 362.944 427.749C362.741 427.259 362.638 426.734 362.638 426.203C362.638 425.673 362.741 425.148 362.944 424.657C363.147 424.167 363.444 423.722 363.819 423.347C364.194 422.972 364.639 422.674 365.13 422.472C365.62 422.269 366.145 422.165 366.676 422.166H393.969C396.633 422.166 399.187 421.108 401.071 419.225C402.954 417.341 404.012 414.786 404.012 412.123V406.902C404.014 404.239 402.958 401.685 401.077 399.801C399.196 397.916 396.644 396.856 393.981 396.853Z" fill="#F0F0F0" fill-opacity="0.9" style="mix-blend-mode:hard-light"/>
<path d="M418.198 333.664H356.339C351.657 333.664 347.861 337.459 347.861 342.14C347.861 346.821 351.657 350.616 356.339 350.616H418.198C422.881 350.616 426.677 346.821 426.677 342.14C426.677 337.459 422.881 333.664 418.198 333.664Z" fill="#F0F0F0" fill-opacity="0.9" style="mix-blend-mode:hard-light"/>
<path d="M439.597 362.551H378.482C374.725 362.551 371.68 365.597 371.68 369.354V369.36C371.68 373.117 374.725 376.163 378.482 376.163H439.597C443.354 376.163 446.4 373.117 446.4 369.36V369.354C446.4 365.597 443.354 362.551 439.597 362.551Z" fill="#F0F0F0" fill-opacity="0.9" style="mix-blend-mode:hard-light"/>
<g opacity="0.25">
<path d="M498.509 415H455.928C452.171 415 449.125 418.046 449.125 421.803V421.809C449.125 425.566 452.171 428.612 455.928 428.612H498.509C502.266 428.612 505.312 425.566 505.312 421.809V421.803C505.312 418.046 502.266 415 498.509 415Z" fill="#E5E5E5" style="mix-blend-mode:multiply"/>
</g>
<g opacity="0.25">
<path d="M358.513 295.618H315.932C312.175 295.618 309.129 298.664 309.129 302.421V302.427C309.129 306.184 312.175 309.23 315.932 309.23H358.513C362.27 309.23 365.316 306.184 365.316 302.427V302.421C365.316 298.664 362.27 295.618 358.513 295.618Z" fill="#E5E5E5" style="mix-blend-mode:multiply"/>
</g>
<g opacity="0.25">
<path d="M343.765 474.585H302.766C300.015 474.585 297.785 476.815 297.785 479.566V479.572C297.785 482.323 300.015 484.553 302.766 484.553H343.765C346.516 484.553 348.745 482.323 348.745 479.572V479.566C348.745 476.815 346.516 474.585 343.765 474.585Z" fill="#E5E5E5" style="mix-blend-mode:multiply"/>
</g>
<g opacity="0.25">
<path d="M392.176 400.544H351.177C348.426 400.544 346.196 402.774 346.196 405.525V405.531C346.196 408.282 348.426 410.512 351.177 410.512H392.176C394.927 410.512 397.157 408.282 397.157 405.531V405.525C397.157 402.774 394.927 400.544 392.176 400.544Z" fill="#E5E5E5" style="mix-blend-mode:multiply"/>
</g>
<g opacity="0.25">
<path d="M473.418 263.754H408.864C406.56 263.754 404.692 265.62 404.692 267.923C404.692 270.226 406.56 272.092 408.864 272.092H473.418C475.722 272.092 477.59 270.226 477.59 267.923C477.59 265.62 475.722 263.754 473.418 263.754Z" fill="#E5E5E5" style="mix-blend-mode:multiply"/>
</g>
<g opacity="0.25">
<path d="M416.698 336.037H380.17C377.898 336.037 376.057 337.879 376.057 340.15C376.057 342.422 377.898 344.264 380.17 344.264H416.698C418.97 344.264 420.812 342.422 420.812 340.15C420.812 337.879 418.97 336.037 416.698 336.037Z" fill="#E5E5E5" style="mix-blend-mode:multiply"/>
</g>
<g opacity="0.25">
<path d="M392.709 532.653H364.232C361.481 532.653 359.251 534.883 359.251 537.634V537.64C359.251 540.39 361.481 542.62 364.232 542.62H392.709C395.46 542.62 397.69 540.39 397.69 537.64V537.634C397.69 534.883 395.46 532.653 392.709 532.653Z" fill="#E5E5E5" style="mix-blend-mode:multiply"/>
</g>
<g opacity="0.25">
<path d="M415.462 454.792H413.235C409.478 454.792 406.432 457.838 406.432 461.595V461.601C406.432 465.358 409.478 468.404 413.235 468.404H415.462C419.219 468.404 422.265 465.358 422.265 461.601V461.595C422.265 457.838 419.219 454.792 415.462 454.792Z" fill="#E5E5E5" style="mix-blend-mode:multiply"/>
</g>
<g opacity="0.25">
<path d="M452.084 454.792H432.589C428.832 454.792 425.786 457.838 425.786 461.595V461.601C425.786 465.358 428.832 468.404 432.589 468.404H452.084C455.841 468.404 458.887 465.358 458.887 461.601V461.595C458.887 457.838 455.841 454.792 452.084 454.792Z" fill="#E5E5E5" style="mix-blend-mode:multiply"/>
</g>
<g opacity="0.25">
<path d="M305.268 369.495H259.927C257.791 369.495 256.059 371.226 256.059 373.362C256.059 375.498 257.791 377.229 259.927 377.229H305.268C307.404 377.229 309.135 375.498 309.135 373.362C309.135 371.226 307.404 369.495 305.268 369.495Z" fill="#E5E5E5" style="mix-blend-mode:multiply"/>
</g>
<g opacity="0.25">
<path d="M472.68 320.058H451.305C448.596 320.058 446.4 322.253 446.4 324.96C446.4 327.667 448.596 329.861 451.305 329.861H472.68C475.389 329.861 477.585 327.667 477.585 324.96C477.585 322.253 475.389 320.058 472.68 320.058Z" fill="#E5E5E5" style="mix-blend-mode:multiply"/>
</g>
<g opacity="0.25">
<path d="M466.082 493.412H446.588C442.831 493.412 439.785 496.458 439.785 500.215V500.221C439.785 503.978 442.831 507.024 446.588 507.024H466.082C469.839 507.024 472.885 503.978 472.885 500.221V500.215C472.885 496.458 469.839 493.412 466.082 493.412Z" fill="#E5E5E5" style="mix-blend-mode:multiply"/>
</g>
<g opacity="0.25">
<path d="M357.429 256.26H326.971C324.89 256.26 323.204 257.946 323.204 260.027V260.033C323.204 262.114 324.89 263.801 326.971 263.801H357.429C359.51 263.801 361.197 262.114 361.197 260.033V260.027C361.197 257.946 359.51 256.26 357.429 256.26Z" fill="#E5E5E5" style="mix-blend-mode:multiply"/>
</g>
<g opacity="0.25">
<path d="M325.53 332.094H293.537C290.76 332.094 288.51 334.343 288.51 337.118C288.51 339.893 290.76 342.143 293.537 342.143H325.53C328.307 342.143 330.557 339.893 330.557 337.118C330.557 334.343 328.307 332.094 325.53 332.094Z" fill="#E5E5E5" style="mix-blend-mode:multiply"/>
</g>
<defs>
<filter id="filter0_f_45_144" x="0" y="0" width="791.73" height="784.086" filterUnits="userSpaceOnUse" color-interpolation-filters="sRGB">
<feFlood flood-opacity="0" result="BackgroundImageFix"/>
<feBlend mode="normal" in="SourceGraphic" in2="BackgroundImageFix" result="shape"/>
<feGaussianBlur stdDeviation="100" result="effect1_foregroundBlur_45_144"/>
</filter>
<radialGradient id="paint0_radial_45_144" cx="0" cy="0" r="1" gradientUnits="userSpaceOnUse" gradientTransform="translate(387.266 395.546) scale(235.98)">
<stop stop-color="white" stop-opacity="0"/>
<stop offset="0.67" stop-color="#8B8B8B" stop-opacity="0.01"/>
<stop offset="0.91" stop-color="#5E5E5E" stop-opacity="0.06"/>
<stop offset="1" stop-color="#3F3F3F" stop-opacity="0.1"/>
</radialGradient>
</defs>
</svg>
